<?xml version="1.0" encoding="utf-8"?>
<!-- Generator: Adobe Illustrator 26.0.0, SVG Export Plug-In . SVG Version: 6.00 Build 0)  -->
<svg version="1.1" id="Layer_1" xmlns="http://www.w3.org/2000/svg" xmlns:xlink="http://www.w3.org/1999/xlink" x="0px" y="0px" width="100" height="80"
	 viewBox="0 0 100 80" style="enable-background:new 0 0 100 80;" xml:space="preserve">
<style type="text/css">
	.st0{fill:none;stroke:#FC8600;stroke-miterlimit:10;}
	.st1{fill:none;stroke:#FC8600;stroke-linejoin:round;stroke-miterlimit:10;}
</style>
<g>
	<path class="st1" d="M54.3,47.8c0,0,9.9-5.5,13.7-15.5C71.8,22.3,64,10,64,10s-14,4-17.8,14c-3.8,10,0,20.7,0,20.7L54.3,47.8z"/>
	<path class="st1" d="M44,33.9c-2.9-1.1-6,0.4-7.1,3.2l-2,5.3L45.2,41"/>
	<path class="st1" d="M63,41.2c2.9,1.1,4.3,4.3,3.2,7.1l-2,5.3l-6.8-7.9"/>
	<path class="st1" d="M22,70c-0.7-1.7-1.1-3.5-1.1-5.4c0-7.7,6.2-14,14-14s14,6.3,14,14"/>
	<path class="st1" d="M45.9,55.9c1-0.3,2-0.4,3-0.4c6.2,0,11.2,5,11.2,11.2c0,1.1-0.2,2.1-0.4,3.1"/>
	<path class="st1" d="M61.7,28.9c0,2.7-2.2,4.9-4.9,4.9c-2.7,0-4.9-2.2-4.9-4.9S54,24,56.7,24C59.5,24,61.7,26.2,61.7,28.9z"/>
</g>
</svg>
