<?xml version="1.0" encoding="utf-8"?>
<!-- Generator: Adobe Illustrator 26.0.0, SVG Export Plug-In . SVG Version: 6.00 Build 0)  -->
<svg version="1.1" id="Layer_1" xmlns="http://www.w3.org/2000/svg" xmlns:xlink="http://www.w3.org/1999/xlink" x="0px" y="0px" width="100" height="80"
	 viewBox="0 0 100 80" style="enable-background:new 0 0 100 80;" xml:space="preserve">
<style type="text/css">
	.st0{fill:none;stroke:#FC8600;stroke-miterlimit:10;}
	.st1{fill:none;stroke:#FC8600;stroke-linejoin:round;stroke-miterlimit:10;}
</style>
<g id="_x39_">
	<g id="_x38__1_">
		<path class="st0" d="M39.7,49.3c0-6.3-4.3-12,0.3-25.1c1.9-1.9,3.7-3.1,6.1-3.3c1.1-0.1,2.4,0,4,0.4c0.1,0,0.3,0.1,0.4,0.1
			c2.5,0.3,4.7-1.6,4.9-4l0.2-2.1c0.3-3.1-2.4-5.6-5.4-5.1c-5.4,0.8-13,3.5-16.9,11.8c0,0-11.9,16.5-10.2,36.4
			c0.5,5.6,18.6,9.8,29.7,9.8c8.6,0,15.4-0.2,20.7,1.6c4.5,1.5,9.2-1.8,9.2-6.5V49.8"/>
		<path class="st0" d="M82.7,44.4c0,0-11.8-2.3-16.3,6.1c-3.3-7.9-13.9-12.9-23.2-5"/>
	</g>
	<path class="st0" d="M51.5,26c0,0,6,1.3,8.3-4"/>
	<path class="st0" d="M17.5,56.3c0,0-1.7,6.9,5.8,10"/>
</g>
</svg>
