<?xml version="1.0" encoding="utf-8"?>
<!-- Generator: Adobe Illustrator 26.0.0, SVG Export Plug-In . SVG Version: 6.00 Build 0)  -->
<svg version="1.1" id="Layer_1" xmlns="http://www.w3.org/2000/svg" xmlns:xlink="http://www.w3.org/1999/xlink" x="0px" y="0px" width="100" height="80"
	 viewBox="0 0 100 80" style="enable-background:new 0 0 100 80;" xml:space="preserve">
<style type="text/css">
	.st0{fill:none;stroke:#FC8600;stroke-miterlimit:10;}
	.st1{fill:none;stroke:#FC8600;stroke-linejoin:round;stroke-miterlimit:10;}
</style>
<g id="_x36_">
	<path class="st0" d="M46.9,68.4c-1.2,1-2.8,1.6-4.5,1.6c-2.8,0-5.3-1.6-6.4-4c-0.4,0.1-0.9,0.1-1.4,0.1c-4,0-7.2-3.2-7.2-7.2
		c0-0.8,0.1-1.6,0.4-2.4c-3-0.9-5.1-3.6-5.1-6.9c0-1.5,0.4-2.8,1.2-3.9c0,0,1.7-2.6,5-2.2"/>
	<path class="st0" d="M49.6,17.2c0-4-3.1-7.2-7.1-7.2c-2.8,0-5.3,1.6-6.4,4c-0.4-0.1-0.9-0.1-1.4-0.1c-4,0-7.2,3.2-7.2,7.2
		c0,0.8,0.1,1.6,0.4,2.4c-3,0.9-5.1,3.6-5.1,6.9c0,1.5,0.4,2.8,1.2,3.9c-1.8,1.3-3,3.4-3,5.8c0,0.9,0.1,1.7,0.4,2.4"/>
	<path class="st0" d="M33,25.7c-1.4,0.3-3.3-0.1-5.2-2.4"/>
	<path class="st0" d="M33.6,47.2c1.8,0.5,4.1,0.2,5.2-3.5"/>
	<path class="st0" d="M36.1,65.9c0,0-0.5-2.3,0.3-4.5"/>
	<line class="st0" x1="24" y1="34.2" x2="27.6" y2="34.2"/>
	<line class="st0" x1="27.9" y1="56.6" x2="32" y2="54.4"/>
	<line class="st0" x1="36.1" y1="14" x2="37.4" y2="16.1"/>
	<path class="st0" d="M78.8,38.3c0.1,0.5,0.2,1.1,0.2,1.7c0,2.4-1.2,4.5-3,5.8c0.7,1.1,1.2,2.5,1.2,3.9c0,3.2-2.2,6-5.1,6.9
		c0.3,0.7,0.4,1.5,0.4,2.4c0,4-3.2,7.2-7.2,7.2c-0.5,0-0.9,0-1.4-0.1c-1.2,2.4-3.6,4-6.4,4c-4,0-7.2-3.2-7.2-7.2l0,0l0-3.5"/>
	<path class="st0" d="M53.3,11.4c1.2-0.9,2.6-1.4,4.2-1.4c2.8,0,5.3,1.6,6.4,4c0.4-0.1,0.9-0.1,1.4-0.1c4,0,7.2,3.2,7.2,7.2
		c0,0.8-0.1,1.6-0.4,2.4c3,0.9,5.1,3.6,5.1,6.9c0,1.5-0.4,2.8-1.2,3.9c0,0-2.1,2.8-5.9,0.8"/>
	<line class="st0" x1="49.6" y1="20.2" x2="49.6" y2="17.2"/>
	<path class="st0" d="M63.9,14c0,0-3.5,0.7-2.8,4.8"/>
	<line class="st0" x1="72.1" y1="23.4" x2="67.2" y2="26.4"/>
	<line class="st0" x1="76" y1="45.8" x2="72.7" y2="45.3"/>
	<path class="st0" d="M72.1,56.6c0,0-3.4,0.5-4.9-1.8"/>
	<line class="st0" x1="63.9" y1="66" x2="62.5" y2="62.6"/>
	<line class="st0" x1="54.9" y1="53.7" x2="57.8" y2="53.7"/>
	<path class="st0" d="M61.8,56.5c-3.4,0.7-5.4-4.4-2.2-6.2"/>
	<path class="st0" d="M31.7,30.9c-1.7,1.6-1.6,7.3,3.8,6.6"/>
	<path class="st0" d="M65.2,39.7c-0.5,2,0.1,4.4,3.5,4.9"/>
	<path class="st0" d="M40.8,58.1c0.1-1.7-3-4.6-5.4-1.4"/>
	<path class="st0" d="M63,25.2c0,0,4.6-1.1,3.8,4.2"/>
	<path class="st0" d="M40.8,21.1c0,0-2.5,4-5.4-0.1"/>
	<polyline class="st0" points="56,27.5 56.8,25.3 46.2,25.3 43.6,39.4 47.9,39.4 46.2,54.7 47.8,54.7 57.2,36.8 52.8,36.8 
		54.3,32.3 	"/>
</g>
</svg>
