<?xml version="1.0" encoding="utf-8"?>
<!-- Generator: Adobe Illustrator 26.0.0, SVG Export Plug-In . SVG Version: 6.00 Build 0)  -->
<svg version="1.1" id="Layer_1" xmlns="http://www.w3.org/2000/svg" xmlns:xlink="http://www.w3.org/1999/xlink" x="0px" y="0px" width="100" height="80"
	 viewBox="0 0 100 80" style="enable-background:new 0 0 100 80;" xml:space="preserve">
<style type="text/css">
	.st0{fill:none;stroke:#FC8600;stroke-miterlimit:10;}
	.st1{fill:none;stroke:#FC8600;stroke-linejoin:round;stroke-miterlimit:10;}
</style>
<g>
	<path class="st1" d="M49.8,50.1c-4.6,0-8.1,3-9.2,7.1"/>
	<path class="st1" d="M59.1,57.2c-1.1-4.1-4.6-7.1-9.2-7.1"/>
	<path class="st1" d="M49.8,46.8L49.8,46.8c-2.1,0-3.8-1.7-3.8-3.8v-2.1c0-2.1,1.7-3.8,3.8-3.8l0,0c2.1,0,3.8,1.7,3.8,3.8v2.1
		C53.7,45,52,46.8,49.8,46.8z"/>
	<path class="st1" d="M30.5,49.3L30.5,49.3c-2.1,0-3.8-1.7-3.8-3.8v-2.1c0-2.1,1.7-3.8,3.8-3.8l0,0c2.1,0,3.8,1.7,3.8,3.8v2.1
		C34.3,47.6,32.6,49.3,30.5,49.3z"/>
	<polyline class="st1" points="31.4,60.2 27.3,70 30.5,70 	"/>
	<path class="st1" d="M19.5,69.9c0,0,1.6-19.4,8.8-16.5c2.7,1.1,7,4.4,15.5,4.2c2.2,0,2.3,3.7,0.1,3.7c-6.9,0.1-11.7-0.7-15.1-2.5"
		/>
	<line class="st1" x1="37.9" y1="65.3" x2="62.7" y2="65.3"/>
	<path class="st1" d="M69.5,49.3L69.5,49.3c2.1,0,3.8-1.7,3.8-3.8v-2.1c0-2.1-1.7-3.8-3.8-3.8l0,0c-2.1,0-3.8,1.7-3.8,3.8v2.1
		C65.7,47.6,67.4,49.3,69.5,49.3z"/>
	<polyline class="st1" points="68.6,60.2 72.7,70 69.4,70 	"/>
	<path class="st1" d="M80.5,69.9c0,0-1.6-19.4-8.8-16.5c-2.7,1.1-7,4.4-15.5,4.2c-2.2,0-2.3,3.7-0.1,3.7c6.9,0.1,11.7-0.7,15.1-2.5"
		/>
	<path class="st1" d="M61.2,13.7v10.9c0,2-1.6,3.7-3.7,3.7H45.9L37,35.5l1.8-7.2H38c-2,0-3.7-1.7-3.7-3.7V13.7c0-2,1.6-3.7,3.7-3.7
		h19.6C59.6,10,61.2,11.7,61.2,13.7z"/>
	<line class="st1" x1="43.7" y1="19" x2="44.1" y2="19"/>
	<line class="st1" x1="47.9" y1="19" x2="48.3" y2="19"/>
	<line class="st1" x1="52" y1="19" x2="52.5" y2="19"/>
</g>
</svg>
