<?xml version="1.0" encoding="utf-8"?>
<!-- Generator: Adobe Illustrator 26.0.0, SVG Export Plug-In . SVG Version: 6.00 Build 0)  -->
<svg version="1.1" id="Layer_1" xmlns="http://www.w3.org/2000/svg" xmlns:xlink="http://www.w3.org/1999/xlink" x="0px" y="0px" width="100" height="80"
	 viewBox="0 0 100 80" style="enable-background:new 0 0 100 80;" xml:space="preserve">
<style type="text/css">
	.st0{fill:none;stroke:#FC8600;stroke-miterlimit:10;}
	.st1{fill:none;stroke:#FC8600;stroke-linejoin:round;stroke-miterlimit:10;}
</style>
<g>
	<path class="st1" d="M15.3,48.4l8.8,3.2c-2.3,6.1-2.1,11.7,0,17L14.7,70"/>
	<path class="st1" d="M24.1,51.6h9.6l2.2-2.2c7-5.9,16,1.2,19.6-2.8c5.5-5.5,11,1.1,6.1,6c-6.5,6.7-8.8,6.4-16.1,8.2"/>
	<path class="st1" d="M24.1,68.6l34.5-1.8c0,0,11.7-2.9,15.4-8.3l2.5-3.2l8-10.5c1.4-1.8,1-4.5-0.8-5.9l0,0c-1.8-1.4-4.5-1-5.9,0.8
		l-9,12c-0.6,0.8-1.4,1.2-2.3,1.3l-4.8,0"/>
	<path class="st1" d="M58.8,28.6c-2.4-1.4-5.2-2.3-8.3-2.3c-3.1,0-5.9,0.8-8.3,2.2"/>
	<path class="st1" d="M50.4,26.3L50.4,26.3c-3.5,0-6.4-2.9-6.4-6.4v-3.5c0-3.5,2.9-6.4,6.4-6.4l0,0c3.5,0,6.4,2.9,6.4,6.4v3.5
		C56.8,23.5,54,26.3,50.4,26.3z"/>
	<path class="st1" d="M82.2,33.3c-2.8-2.5-6.9-4.2-10.8-4.2c-6.4,0-11.6,3.5-14.2,8.6l0,2.6"/>
	<path class="st1" d="M71.4,29.1L71.4,29.1c-3.5,0-6.4-2.9-6.4-6.4v-3.5c0-3.5,2.9-6.4,6.4-6.4l0,0c3.5,0,6.4,2.9,6.4,6.4v3.5
		C77.8,26.3,74.9,29.1,71.4,29.1z"/>
	<path class="st1" d="M43.5,42.5l0-4.7c-2.6-5.2-7.7-8.6-14.2-8.6c-6.4,0-11.6,3.5-14.2,8.6l0,6.3"/>
	<path class="st1" d="M29.3,29.1L29.3,29.1c-3.5,0-6.4-2.9-6.4-6.4v-3.5c0-3.5,2.9-6.4,6.4-6.4l0,0c3.5,0,6.4,2.9,6.4,6.4v3.5
		C35.6,26.3,32.8,29.1,29.3,29.1z"/>
</g>
</svg>
