<?xml version="1.0" encoding="utf-8"?>
<!-- Generator: Adobe Illustrator 25.4.1, SVG Export Plug-In . SVG Version: 6.00 Build 0)  -->
<svg version="1.1" id="Layer_1" xmlns="http://www.w3.org/2000/svg" xmlns:xlink="http://www.w3.org/1999/xlink" x="0px" y="0px" width="1100" height="400"
	 viewBox="0 0 1100 400" style="enable-background:new 0 0 1100 400;" xml:space="preserve">
<style type="text/css">
	.st0{fill:#FD8524;}
	.st1{opacity:0.29;}
	.st2{opacity:0.69;}
	.st3{opacity:0.54;}
	.st4{opacity:0.32;}
	.st5{opacity:0.38;}
	.st6{opacity:0.5;}
	.st7{opacity:0.58;}
	.st8{opacity:0.37;}
	.st9{opacity:0.24;}
	.st10{opacity:0.77;}
</style>
<g>
	<g>
		<g>
			<path class="st0" d="M-217.5,43.5l-1.2-1.4l126-128.8l2.6,37.2L-217.5,43.5z M-94.1-82.5L-209.7,35.6l117.8-85.9L-94.1-82.5z"/>
		</g>
		<g class="st1">
			<path class="st0" d="M-222.2,44.7l132.8-96.8L-109,18.2L-222.2,44.7z M-92.5-47.6l-121.3,88.4l103.4-24.2L-92.5-47.6z"/>
		</g>
		<g class="st2">
			<path class="st0" d="M-219.6,45.7l22.5-105.5l106.6-26.4L-219.6,45.7z M-195.5-58.3l-20.9,98.3L-96.3-82.9L-195.5-58.3z"/>
		</g>
		<g class="st3">
			<path class="st0" d="M-198.2-57.7l16-27.8h96.2L-198.2-57.7z M-181.1-83.6l-13.4,23.2l93.6-23.2H-181.1z"/>
		</g>
		<g>
			<path class="st0" d="M-226-3l11.2-57.2l20,0.3L-226-3z M-213.3-58.4l-8.7,44.3l24.2-44L-213.3-58.4z"/>
		</g>
		<g>
			<path class="st0" d="M-195.8-58.2l-20.7-0.3l1.9-1.6c4.9-4.1,29.7-24.6,32.8-25.4l2.1-0.5L-195.8-58.2z M-211.6-60.2l14.7,0.2
				l12.7-22C-189.8-78-202.4-67.8-211.6-60.2z"/>
		</g>
		<g class="st4">
			<path class="st0" d="M-218.1,47.7l-0.8-4.8c-0.8-4.8-7.6-47.2-6-51.8c1.6-4.6,26.7-48.8,27.8-50.6l2.9-5.1L-218.1,47.7z
				 M-198.4-53.5c-6.8,12.1-23.5,41.7-24.7,45.2c-1,2.9,2.4,27.6,5.3,46.1L-198.4-53.5z"/>
		</g>
		<g>
			<path class="st0" d="M-143.9,73.6l-38-4.5l-0.2-0.1l-43.7-30.5L-143.9,73.6z M-181.3,67.4l25.1,3l-54.1-23.3L-181.3,67.4z"/>
		</g>
		<g>
			<path class="st0" d="M-91.8-48.5l-2.6-36.9h93.9L-91.8-48.5z M-92.4-83.6l2.3,32.5l80.3-32.5H-92.4z"/>
		</g>
		<g>
			<path class="st0" d="M36.8,45.3L-6.9-87.1L163.7,44.2L36.8,45.3z M-3.4-82L38.1,43.5l120.4-1.1L-3.4-82z"/>
		</g>
		<g>
			<path class="st0" d="M39,46.2l-54.9-27.8l0.1-0.6L-5.6-88.9L39,46.2z M-14,17.3l49.9,25.3L-4.7-80.2L-14,17.3z"/>
		</g>
		<g class="st3">
			<path class="st0" d="M-14.1,18.8l-97.9-0.5L-4-86.9L-14.1,18.8z M-107.5,16.5l91.8,0.4l9.4-99.1L-107.5,16.5z"/>
		</g>
		<g>
			<path class="st0" d="M-149.7,73.1l-0.7-0.3l-70.5-30.3L-107.6,16L-149.7,73.1z M-215.1,43l64.8,27.8l38.4-52L-215.1,43z"/>
		</g>
		<g class="st5">
			<path class="st0" d="M164.7,47.1L-12-87.1l116.8,41.5L164.7,47.1z M-1.6-81.5L157.5,39.4l-53.9-83.6L-1.6-81.5z"/>
		</g>
		<g>
			<path class="st0" d="M127.7,196.7L-14,158.9l180.9-51.5L127.7,196.7z M-7.2,158.8l133.8,35.7l37.1-84.3L-7.2,158.8z"/>
		</g>
		<g class="st3">
			<path class="st0" d="M166.3,110.4l-1.4-0.7L33.7,43.6L162,42.4L166.3,110.4z M41.2,45.3l123.1,62l-4.1-63.1L41.2,45.3z"/>
		</g>
		<g>
			<path class="st0" d="M87.4,232.3L-15,156.8l144,38.4L87.4,232.3z M-6.2,161l93.5,69l38-33.9L-6.2,161z"/>
		</g>
		<g>
			<path class="st0" d="M-24.6,262.1l-87.1-104.8l100.3-0.7L-24.6,262.1z M-107.8,159.1l81.9,98.6l12.4-99.3L-107.8,159.1z"/>
		</g>
		<g class="st6">
			<path class="st0" d="M-22.5,261.7L-227,195l117.5-37.9l0.4,0.5L-22.5,261.7z M-221.1,195L-28,258l-82.1-98.8L-221.1,195z"/>
		</g>
		<g class="st7">
			<path class="st0" d="M-19.5,260.8H-110l-0.2-0.1l-122.1-69.3L-19.5,260.8z M-109.5,259H-31l-184.8-60.3L-109.5,259z"/>
		</g>
		<g>
			<path class="st0" d="M182.6,360.5L-26.2,260.4l13.1-104.9l1.3,1.4L182.6,360.5z M-24.3,259.3l198.7,95.2l-186.2-195L-24.3,259.3z
				"/>
		</g>
		<g class="st4">
			<path class="st0" d="M177.8,358.1l-190.9-200l1.2-1.4L88,230.5l0.1,0.1L179.2,357L177.8,358.1z M-4.5,164.5L170,347.3L86.7,231.8
				L-4.5,164.5z"/>
		</g>
		<g>
			<path class="st0" d="M41.2,123.5l7-31.2l0.8,0.1c0,0,29.1,3.7,58.2,7.5c43.4,5.6,54.9,7.2,57.9,8.1c0,0,0,0,0,0l0,0
				c1.1,0.3,1.1,0.6,1.1,0.9l0,0.8l-0.8,0.1c-3.1,0.5-118.1,13.1-123,13.6L41.2,123.5z M49.6,94.3l-6.1,27.1
				c11.2-1.2,92.5-10.1,115.7-12.7C139.6,105.8,76.9,97.7,49.6,94.3z"/>
		</g>
		<g class="st8">
			<path class="st0" d="M170.5,110.5L48.2,94.1l-12-51.4L170.5,110.5z M49.6,92.5l110.5,14.8L38.8,46.1L49.6,92.5z"/>
		</g>
		<g class="st9">
			<path class="st0" d="M-15.7,161.3L42,121.6l0.2,0l123-13.6l0.3,1.8L-15.7,161.3z M42.7,123.3l-48.2,33.2l160.2-45.5L42.7,123.3z"
				/>
		</g>
		<g class="st3">
			<path class="st0" d="M-166.6,456.4l-58.8-263.2l116.7,66.2L-166.6,456.4z M-222.7,196.8l56.3,252.3l55.5-188.8L-222.7,196.8z"/>
		</g>
		<g class="st10">
			<path class="st0" d="M89.9,424.8l-0.5-0.8L-28,257.6l3.1,1.5l205.1,98.3L89.9,424.8z M-22.5,262.2l112.8,160l86.4-64.6
				L-22.5,262.2z"/>
		</g>
		<g class="st10">
			<path class="st0" d="M-224.9,196.3l-1.8-52.6l121.2,14.2L-224.9,196.3z M-224.8,145.7l1.6,48.1l109.1-35.2L-224.8,145.7z"/>
		</g>
		<g>
			<path class="st0" d="M186.2,428.9l-98.7-4.6l91.7-68.5L186.2,428.9z M92.6,422.7l91.5,4.3l-6.4-67.8L92.6,422.7z"/>
		</g>
		<g>
			<path class="st0" d="M136.3,453.8l-0.4-0.3l-49.1-31.1l101.9,4.8L136.3,453.8z M93.5,424.6l42.9,27.1l45.3-23L93.5,424.6z"/>
		</g>
		<g>
			<path class="st0" d="M184.7,432.8l-7.7-81.5l18.2,45.3L184.7,432.8z M180,363.7l5.6,59.4l7.6-26.4L180,363.7z"/>
		</g>
		<g class="st8">
			<path class="st0" d="M-107.3,159.4l-119.1-14l59.5-45.6L-107.3,159.4z M-221.7,144.2l109.4,12.8l-54.7-54.7L-221.7,144.2z"/>
		</g>
		<g>
			<path class="st0" d="M-165,455.2l-59.9-50.5V186.8L-165,455.2z M-223.1,403.9l55.2,46.5l-55.2-247.1V403.9z"/>
		</g>
		<g>
			<path class="st0" d="M-170.1,455l63.1-60.3l-23.5,46.6L-170.1,455z M-113.4,403.3l-49.4,47.3l31-10.7L-113.4,403.3z"/>
		</g>
		<g>
			<path class="st0" d="M-168.3,455.8l59.5-202.3l-0.5,145.9l-0.3,0.3L-168.3,455.8z M-110.6,266.3l-54,183.5l53.5-51.2
				L-110.6,266.3z"/>
		</g>
	</g>
	<g>
		<circle class="st0" cx="-95.7" cy="-84.3" r="8.3"/>
		<circle class="st0" cx="-150" cy="68.1" r="10.8"/>
		<circle class="st0" cx="-184" cy="68.1" r="6.2"/>
		<circle class="st0" cx="-166.5" cy="100.9" r="6.2"/>
		<circle class="st0" cx="-181.6" cy="-84.3" r="6.2"/>
		<circle class="st0" cx="-216.3" cy="-59.9" r="4.3"/>
		<circle class="st0" cx="-218" cy="42.8" r="10.8"/>
		<circle class="st0" cx="-195.2" cy="-56.4" r="10.8"/>
		<circle class="st0" cx="-5.2" cy="-84.3" r="10.8"/>
		<circle class="st0" cx="37.5" cy="46.1" r="7.2"/>
		<circle class="st0" cx="161.1" cy="42.8" r="6.2"/>
		<circle class="st0" cx="165.3" cy="108.3" r="10.8"/>
		<circle class="st0" cx="132.4" cy="448.9" r="10.8"/>
		<circle class="st0" cx="-10.6" cy="158.9" r="10.8"/>
		<circle class="st0" cx="176.1" cy="356.3" r="10.8"/>
		<circle class="st0" cx="-25.2" cy="259.9" r="10.8"/>
		<circle class="st0" cx="-109.7" cy="259.9" r="10.8"/>
		<circle class="st0" cx="-110.2" cy="403.5" r="7.6"/>
		<circle class="st0" cx="-225.7" cy="403.5" r="7.6"/>
		<circle class="st0" cx="90.1" cy="231.1" r="10.8"/>
		<circle class="st0" cx="183.8" cy="429.5" r="9.6"/>
		<circle class="st0" cx="50.4" cy="93.3" r="7.6"/>
		<circle class="st0" cx="42.3" cy="122.4" r="5.2"/>
		<circle class="st0" cx="90.1" cy="423.5" r="5.2"/>
		<circle class="st0" cx="194.2" cy="399" r="5.2"/>
		<circle class="st0" cx="127.2" cy="195.6" r="5.2"/>
		<circle class="st0" cx="103.9" cy="-45.7" r="6"/>
		<circle class="st0" cx="-91" cy="-49.8" r="6"/>
		<circle class="st0" cx="-12.4" cy="19.2" r="10.8"/>
		<circle class="st0" cx="-106.4" cy="17.9" r="10.8"/>
		<circle class="st0" cx="-109.7" cy="158.9" r="7.6"/>
		<circle class="st0" cx="-224" cy="148.1" r="7.7"/>
		<circle class="st0" cx="-224.2" cy="198.1" r="10.8"/>
		<circle class="st0" cx="-167.7" cy="448.9" r="10.8"/>
	</g>
</g>
<g>
	<g>
		<g>
			<path class="st0" d="M980.2-25.8l-1.2-1.4l126-128.8l2.6,37.2L980.2-25.8z M1103.6-151.8L988-33.7l117.8-85.9L1103.6-151.8z"/>
		</g>
		<g class="st1">
			<path class="st0" d="M975.5-24.6l132.8-96.8l-19.6,70.3L975.5-24.6z M1105.2-116.9L983.9-28.4l103.4-24.2L1105.2-116.9z"/>
		</g>
		<g class="st2">
			<path class="st0" d="M978.2-23.7l22.5-105.5l106.6-26.4L978.2-23.7z M1002.2-127.7l-20.9,98.3l120.2-122.8L1002.2-127.7z"/>
		</g>
		<g class="st3">
			<path class="st0" d="M999.6-127l16-27.8h96.2L999.6-127z M1016.6-153l-13.4,23.2l93.6-23.2H1016.6z"/>
		</g>
		<g>
			<path class="st0" d="M971.7-72.4l11.2-57.2l20,0.3L971.7-72.4z M984.4-127.8l-8.7,44.3l24.2-44L984.4-127.8z"/>
		</g>
		<g>
			<path class="st0" d="M1001.9-127.5l-20.7-0.3l1.9-1.6c4.9-4.1,29.7-24.6,32.8-25.4l2.1-0.5L1001.9-127.5z M986.1-129.6l14.7,0.2
				l12.7-22C1007.9-147.3,995.3-137.1,986.1-129.6z"/>
		</g>
		<g class="st4">
			<path class="st0" d="M979.6-21.6l-0.8-4.8c-0.8-4.8-7.6-47.2-6-51.8c1.6-4.6,26.7-48.8,27.8-50.6l2.9-5.1L979.6-21.6z
				 M999.3-122.8c-6.8,12.1-23.5,41.7-24.7,45.2c-1,2.9,2.4,27.6,5.3,46.1L999.3-122.8z"/>
		</g>
		<g>
			<path class="st0" d="M1053.8,4.3l-38-4.5l-0.2-0.1l-43.7-30.5L1053.8,4.3z M1016.4-1.9l25.1,3l-54.1-23.3L1016.4-1.9z"/>
		</g>
		<g>
			<path class="st0" d="M1105.9-117.8l-2.6-36.9h93.9L1105.9-117.8z M1105.3-153l2.3,32.5l80.3-32.5H1105.3z"/>
		</g>
		<g>
			<path class="st0" d="M1234.5-24l-43.7-132.4l170.7,131.3L1234.5-24z M1194.3-151.4l41.5,125.6l120.4-1.1L1194.3-151.4z"/>
		</g>
		<g>
			<path class="st0" d="M1236.7-23.1l-54.9-27.8l0.1-0.6l10.2-106.7L1236.7-23.1z M1183.8-52l49.9,25.3l-40.6-122.8L1183.8-52z"/>
		</g>
		<g class="st3">
			<path class="st0" d="M1183.6-50.6l-97.9-0.5l108-105.2L1183.6-50.6z M1090.2-52.8l91.8,0.4l9.4-99.1L1090.2-52.8z"/>
		</g>
		<g>
			<path class="st0" d="M1048,3.8l-0.7-0.3l-70.5-30.3l113.4-26.6L1048,3.8z M982.6-26.3l64.8,27.8l38.4-52L982.6-26.3z"/>
		</g>
		<g class="st5">
			<path class="st0" d="M1362.4-22.2l-176.7-134.2l116.8,41.5L1362.4-22.2z M1196.1-150.8l159.2,120.9l-53.9-83.6L1196.1-150.8z"/>
		</g>
		<g>
			<path class="st0" d="M1325.4,127.3l-141.7-37.8l180.9-51.5L1325.4,127.3z M1190.5,89.5l133.8,35.7l37.1-84.3L1190.5,89.5z"/>
		</g>
		<g class="st3">
			<path class="st0" d="M1364,41.1l-1.4-0.7l-131.2-66.1l128.3-1.2L1364,41.1z M1238.9-24L1362,38l-4.1-63.1L1238.9-24z"/>
		</g>
		<g>
			<path class="st0" d="M1285.1,163l-102.4-75.5l144,38.4L1285.1,163z M1191.5,91.7l93.5,69l38-33.9L1191.5,91.7z"/>
		</g>
		<g>
			<path class="st0" d="M1173.1,192.7L1086,88l100.3-0.7L1173.1,192.7z M1089.9,89.8l81.9,98.6l12.4-99.3L1089.9,89.8z"/>
		</g>
		<g class="st6">
			<path class="st0" d="M1175.2,192.4l-204.4-66.7l117.5-37.9l0.4,0.5L1175.2,192.4z M976.7,125.7l193.1,63l-82.1-98.8L976.7,125.7z
				"/>
		</g>
		<g class="st7">
			<path class="st0" d="M1178.2,191.5h-90.4l-0.2-0.1l-122.1-69.3L1178.2,191.5z M1088.2,189.6h78.5L982,129.4L1088.2,189.6z"/>
		</g>
		<g>
			<path class="st0" d="M1380.3,291.1l-208.8-100.1l13.1-104.9l1.3,1.4L1380.3,291.1z M1173.5,190l198.7,95.2l-186.2-195L1173.5,190
				z"/>
		</g>
		<g class="st4">
			<path class="st0" d="M1375.5,288.8l-190.9-200l1.2-1.4l99.9,73.7l0.1,0.1l91.1,126.4L1375.5,288.8z M1193.2,95.1L1367.7,278
				l-83.3-115.6L1193.2,95.1z"/>
		</g>
		<g>
			<path class="st0" d="M1238.9,54.2l7-31.2l0.8,0.1c0,0,29.1,3.7,58.2,7.5c43.4,5.6,54.9,7.2,57.9,8.1c0,0,0,0,0,0l0,0
				c1.1,0.3,1.1,0.6,1.1,0.9l0,0.8l-0.8,0.1c-3.1,0.5-118.1,13.1-123,13.6L1238.9,54.2z M1247.3,25l-6.1,27.1
				c11.2-1.2,92.5-10.1,115.7-12.7C1337.3,36.4,1274.6,28.4,1247.3,25z"/>
		</g>
		<g class="st8">
			<path class="st0" d="M1368.3,41.1l-122.4-16.4l-12-51.4L1368.3,41.1z M1247.4,23.1l110.5,14.8l-121.3-61.1L1247.4,23.1z"/>
		</g>
		<g class="st9">
			<path class="st0" d="M1182.1,91.9l57.7-39.7l0.2,0l123-13.6l0.3,1.8L1182.1,91.9z M1240.4,54l-48.2,33.2l160.2-45.5L1240.4,54z"
				/>
		</g>
		<g class="st3">
			<path class="st0" d="M1031.1,387.1l-58.8-263.2l116.7,66.2L1031.1,387.1z M975,127.5l56.3,252.3l55.5-188.8L975,127.5z"/>
		</g>
		<g class="st10">
			<path class="st0" d="M1287.6,355.5l-0.5-0.8l-117.3-166.5l3.1,1.5l205.1,98.3L1287.6,355.5z M1175.2,192.9l112.8,160l86.4-64.6
				L1175.2,192.9z"/>
		</g>
		<g class="st10">
			<path class="st0" d="M972.8,126.9l-1.8-52.6l121.2,14.2L972.8,126.9z M972.9,76.4l1.6,48.1l109.1-35.2L972.9,76.4z"/>
		</g>
		<g>
			<path class="st0" d="M1383.9,359.6l-98.7-4.6l91.7-68.5L1383.9,359.6z M1290.4,353.4l91.5,4.3l-6.4-67.8L1290.4,353.4z"/>
		</g>
		<g>
			<path class="st0" d="M1334,384.5l-0.4-0.3l-49.1-31.1l101.9,4.8L1334,384.5z M1291.2,355.3l42.9,27.1l45.3-23L1291.2,355.3z"/>
		</g>
		<g>
			<path class="st0" d="M1382.4,363.5l-7.7-81.5l18.2,45.3L1382.4,363.5z M1377.7,294.4l5.6,59.4l7.6-26.4L1377.7,294.4z"/>
		</g>
		<g class="st8">
			<path class="st0" d="M1090.5,90.1l-119.1-14l59.5-45.6L1090.5,90.1z M976,74.8l109.4,12.8L1030.7,33L976,74.8z"/>
		</g>
		<g>
			<path class="st0" d="M1032.7,385.9l-59.9-50.5V117.5L1032.7,385.9z M974.6,334.6l55.2,46.5l-55.2-247.1V334.6z"/>
		</g>
		<g>
			<path class="st0" d="M1027.6,385.7l63.1-60.3l-23.5,46.6L1027.6,385.7z M1084.3,334l-49.4,47.3l31-10.7L1084.3,334z"/>
		</g>
		<g>
			<path class="st0" d="M1029.4,386.5l59.5-202.3l-0.5,145.9l-0.3,0.3L1029.4,386.5z M1087.1,196.9l-54,183.5l53.5-51.2
				L1087.1,196.9z"/>
		</g>
	</g>
	<g>
		<circle class="st0" cx="1102.1" cy="-153.6" r="8.3"/>
		<circle class="st0" cx="1047.7" cy="-1.2" r="10.8"/>
		<circle class="st0" cx="1013.7" cy="-1.2" r="6.2"/>
		<circle class="st0" cx="1031.3" cy="31.6" r="6.2"/>
		<circle class="st0" cx="1016.1" cy="-153.6" r="6.2"/>
		<circle class="st0" cx="981.4" cy="-129.2" r="4.3"/>
		<circle class="st0" cx="979.7" cy="-26.5" r="10.8"/>
		<circle class="st0" cx="1002.5" cy="-125.8" r="10.8"/>
		<circle class="st0" cx="1192.6" cy="-153.6" r="10.8"/>
		<circle class="st0" cx="1235.2" cy="-23.2" r="7.2"/>
		<circle class="st0" cx="1358.8" cy="-26.5" r="6.2"/>
		<circle class="st0" cx="1363" cy="39" r="10.8"/>
		<circle class="st0" cx="1330.1" cy="379.6" r="10.8"/>
		<circle class="st0" cx="1187.1" cy="89.6" r="10.8"/>
		<circle class="st0" cx="1373.8" cy="287" r="10.8"/>
		<circle class="st0" cx="1172.5" cy="190.6" r="10.8"/>
		<circle class="st0" cx="1088" cy="190.6" r="10.8"/>
		<circle class="st0" cx="1087.5" cy="334.2" r="7.6"/>
		<circle class="st0" cx="972" cy="334.2" r="7.6"/>
		<circle class="st0" cx="1287.8" cy="161.8" r="10.8"/>
		<circle class="st0" cx="1381.5" cy="360.2" r="9.6"/>
		<circle class="st0" cx="1248.1" cy="24" r="7.6"/>
		<circle class="st0" cx="1240" cy="53.1" r="5.2"/>
		<circle class="st0" cx="1287.8" cy="354.2" r="5.2"/>
		<circle class="st0" cx="1391.9" cy="329.6" r="5.2"/>
		<circle class="st0" cx="1324.9" cy="126.3" r="5.2"/>
		<circle class="st0" cx="1301.6" cy="-115" r="6"/>
		<circle class="st0" cx="1106.8" cy="-119.2" r="6"/>
		<circle class="st0" cx="1185.3" cy="-50.1" r="10.8"/>
		<circle class="st0" cx="1091.3" cy="-51.5" r="10.8"/>
		<circle class="st0" cx="1088" cy="89.6" r="7.6"/>
		<circle class="st0" cx="973.7" cy="78.8" r="7.7"/>
		<circle class="st0" cx="973.5" cy="128.7" r="10.8"/>
		<circle class="st0" cx="1030" cy="379.6" r="10.8"/>
	</g>
</g>
</svg>
